<svg xmlns="http://www.w3.org/2000/svg" width="214.45" height="35" viewBox="0 0 214.45 35"><rect class="svg__rect" x="0" y="0" width="135.9" height="35" fill="#005384"/><rect class="svg__rect" x="133.9" y="0" width="80.54999999999998" height="35" fill="#389AD5"/><path class="svg__text" d="M17.33 22L14.22 22L14.22 13.47L17.14 13.47Q18.59 13.47 19.34 14.05Q20.10 14.63 20.10 15.78L20.10 15.78Q20.10 16.36 19.78 16.83Q19.47 17.30 18.86 17.56L18.86 17.56Q19.55 17.75 19.93 18.26Q20.31 18.78 20.31 19.51L20.31 19.51Q20.31 20.71 19.53 21.36Q18.76 22 17.33 22L17.33 22ZM15.70 18.15L15.70 20.82L17.35 20.82Q18.04 20.82 18.44 20.47Q18.83 20.13 18.83 19.51L18.83 19.51Q18.83 18.18 17.47 18.15L17.47 18.15L15.70 18.15ZM15.70 14.66L15.70 17.06L17.15 17.06Q17.84 17.06 18.23 16.75Q18.62 16.43 18.62 15.86L18.62 15.86Q18.62 15.23 18.26 14.95Q17.90 14.66 17.14 14.66L17.14 14.66L15.70 14.66ZM24.51 18.00L24.51 18.00L24.51 17.52Q24.51 16.28 24.95 15.32Q25.39 14.37 26.20 13.86Q27.00 13.35 28.05 13.35Q29.09 13.35 29.89 13.85Q30.70 14.35 31.14 15.29Q31.58 16.23 31.58 17.48L31.58 17.48L31.58 17.96Q31.58 19.21 31.15 20.16Q30.72 21.10 29.91 21.61Q29.11 22.12 28.06 22.12L28.06 22.12Q27.02 22.12 26.21 21.61Q25.40 21.10 24.95 20.17Q24.51 19.23 24.51 18.00ZM25.99 17.46L25.99 17.96Q25.99 19.36 26.54 20.13Q27.08 20.90 28.06 20.90L28.06 20.90Q29.04 20.90 29.57 20.15Q30.10 19.40 30.10 17.96L30.10 17.96L30.10 17.51Q30.10 16.09 29.57 15.34Q29.03 14.58 28.05 14.58L28.05 14.58Q27.08 14.58 26.54 15.33Q26.00 16.09 25.99 17.46L25.99 17.46ZM37.73 14.66L35.09 14.66L35.09 13.47L41.86 13.47L41.86 14.66L39.20 14.66L39.20 22L37.73 22L37.73 14.66ZM47.30 14.66L44.66 14.66L44.66 13.47L51.43 13.47L51.43 14.66L48.77 14.66L48.77 22L47.30 22L47.30 14.66ZM60.54 22L55.19 22L55.19 13.47L56.67 13.47L56.67 20.82L60.54 20.82L60.54 22ZM70.24 22L64.67 22L64.67 13.47L70.20 13.47L70.20 14.66L66.15 14.66L66.15 17.02L69.65 17.02L69.65 18.19L66.15 18.19L66.15 20.82L70.24 20.82L70.24 22ZM76.89 22L74.44 22L74.44 13.47L76.96 13.47Q78.09 13.47 78.97 13.97Q79.84 14.48 80.32 15.40Q80.80 16.33 80.80 17.52L80.80 17.52L80.80 17.95Q80.80 19.16 80.32 20.08Q79.84 21.00 78.94 21.50Q78.05 22 76.89 22L76.89 22ZM75.92 14.66L75.92 20.82L76.89 20.82Q78.06 20.82 78.68 20.09Q79.30 19.36 79.31 17.99L79.31 17.99L79.31 17.52Q79.31 16.13 78.71 15.40Q78.11 14.66 76.96 14.66L76.96 14.66L75.92 14.66ZM92.81 22L91.33 22L91.33 13.47L92.81 13.47L92.81 22ZM99.10 22L97.62 22L97.62 13.47L99.10 13.47L102.92 19.54L102.92 13.47L104.39 13.47L104.39 22L102.90 22L99.10 15.95L99.10 22ZM115.88 22L114.34 22L117.56 13.47L118.89 13.47L122.12 22L120.58 22L119.88 20.01L116.57 20.01L115.88 22ZM118.23 15.28L116.99 18.82L119.46 18.82L118.23 15.28Z" fill="#FFFFFF"/><path class="svg__text" d="M150.47 22L148.09 22L148.09 13.60L154.68 13.60L154.68 15.44L150.47 15.44L150.47 17.28L154.18 17.28L154.18 19.12L150.47 19.12L150.47 22ZM165.66 22L159.27 22L159.27 13.60L161.65 13.60L161.65 20.11L165.66 20.11L165.66 22ZM171.50 22L169.07 22L172.78 13.60L175.12 13.60L178.84 22L176.37 22L175.71 20.37L172.16 20.37L171.50 22ZM173.93 15.93L172.85 18.61L175.01 18.61L173.93 15.93ZM182.41 21.24L182.41 21.24L183.19 19.49Q183.75 19.86 184.49 20.09Q185.24 20.32 185.96 20.32L185.96 20.32Q187.32 20.32 187.33 19.64L187.33 19.64Q187.33 19.28 186.94 19.11Q186.55 18.93 185.68 18.74L185.68 18.74Q184.73 18.53 184.10 18.30Q183.46 18.06 183.01 17.55Q182.55 17.03 182.55 16.16L182.55 16.16Q182.55 15.39 182.97 14.77Q183.39 14.15 184.23 13.79Q185.06 13.43 186.27 13.43L186.27 13.43Q187.09 13.43 187.90 13.62Q188.71 13.80 189.32 14.17L189.32 14.17L188.59 15.93Q187.39 15.28 186.26 15.28L186.26 15.28Q185.55 15.28 185.22 15.49Q184.90 15.70 184.90 16.04L184.90 16.04Q184.90 16.37 185.29 16.54Q185.67 16.71 186.52 16.89L186.52 16.89Q187.48 17.10 188.11 17.33Q188.74 17.56 189.20 18.07Q189.67 18.58 189.67 19.46L189.67 19.46Q189.67 20.21 189.25 20.83Q188.83 21.44 187.99 21.80Q187.15 22.17 185.95 22.17L185.95 22.17Q184.93 22.17 183.96 21.92Q183.00 21.67 182.41 21.24ZM196.60 22L194.24 22L194.24 13.60L196.60 13.60L196.60 17.09L199.85 13.60L202.46 13.60L199.04 17.32L202.64 22L199.88 22L197.48 18.95L196.60 19.90L196.60 22Z" fill="#FFFFFF" x="146.9"/></svg>