<svg xmlns="http://www.w3.org/2000/svg" width="193.86" height="35" viewBox="0 0 193.86 35"><rect class="svg__rect" x="0" y="0" width="115.31" height="35" fill="#005384"/><rect class="svg__rect" x="113.31" y="0" width="80.55000000000001" height="35" fill="#389AD5"/><path class="svg__text" d="M15.69 22L14.22 22L14.22 13.47L16.14 13.47L18.60 20.01L21.06 13.47L22.97 13.47L22.97 22L21.49 22L21.49 19.19L21.64 15.43L19.12 22L18.06 22L15.55 15.43L15.69 19.19L15.69 22ZM28.49 22L26.95 22L30.17 13.47L31.50 13.47L34.73 22L33.18 22L32.49 20.01L29.18 20.01L28.49 22ZM30.83 15.28L29.60 18.82L32.07 18.82L30.83 15.28ZM41.14 22L38.69 22L38.69 13.47L41.21 13.47Q42.34 13.47 43.21 13.97Q44.09 14.48 44.57 15.40Q45.05 16.33 45.05 17.52L45.05 17.52L45.05 17.95Q45.05 19.16 44.57 20.08Q44.08 21.00 43.19 21.50Q42.30 22 41.14 22L41.14 22ZM40.17 14.66L40.17 20.82L41.14 20.82Q42.30 20.82 42.93 20.09Q43.55 19.36 43.56 17.99L43.56 17.99L43.56 17.52Q43.56 16.13 42.96 15.40Q42.35 14.66 41.21 14.66L41.21 14.66L40.17 14.66ZM55.09 22L49.51 22L49.51 13.47L55.05 13.47L55.05 14.66L51.00 14.66L51.00 17.02L54.50 17.02L54.50 18.19L51.00 18.19L51.00 20.82L55.09 20.82L55.09 22ZM66.65 22L64.68 13.47L66.15 13.47L67.47 19.88L69.10 13.47L70.34 13.47L71.96 19.89L73.27 13.47L74.74 13.47L72.77 22L71.35 22L69.73 15.77L68.07 22L66.65 22ZM80.38 22L78.90 22L78.90 13.47L80.38 13.47L80.38 22ZM86.87 14.66L84.23 14.66L84.23 13.47L91.00 13.47L91.00 14.66L88.34 14.66L88.34 22L86.87 22L86.87 14.66ZM96.24 22L94.75 22L94.75 13.47L96.24 13.47L96.24 17.02L100.05 17.02L100.05 13.47L101.53 13.47L101.53 22L100.05 22L100.05 18.21L96.24 18.21L96.24 22Z" fill="#FFFFFF"/><path class="svg__text" d="M129.88 22L127.50 22L127.50 13.60L134.09 13.60L134.09 15.44L129.88 15.44L129.88 17.28L133.59 17.28L133.59 19.12L129.88 19.12L129.88 22ZM145.07 22L138.68 22L138.68 13.60L141.06 13.60L141.06 20.11L145.07 20.11L145.07 22ZM150.91 22L148.48 22L152.19 13.60L154.53 13.60L158.25 22L155.78 22L155.12 20.37L151.57 20.37L150.91 22ZM153.34 15.93L152.26 18.61L154.42 18.61L153.34 15.93ZM161.82 21.24L161.82 21.24L162.60 19.49Q163.16 19.86 163.90 20.09Q164.65 20.32 165.37 20.32L165.37 20.32Q166.73 20.32 166.74 19.64L166.74 19.64Q166.74 19.28 166.35 19.11Q165.96 18.93 165.09 18.74L165.09 18.74Q164.14 18.53 163.51 18.30Q162.87 18.06 162.42 17.55Q161.96 17.03 161.96 16.16L161.96 16.16Q161.96 15.39 162.38 14.77Q162.80 14.15 163.64 13.79Q164.47 13.43 165.68 13.43L165.68 13.43Q166.50 13.43 167.31 13.62Q168.12 13.80 168.73 14.17L168.73 14.17L168.00 15.93Q166.80 15.28 165.67 15.28L165.67 15.28Q164.96 15.28 164.63 15.49Q164.31 15.70 164.31 16.04L164.31 16.04Q164.31 16.37 164.70 16.54Q165.08 16.71 165.93 16.89L165.93 16.89Q166.89 17.10 167.52 17.33Q168.15 17.56 168.61 18.07Q169.08 18.58 169.08 19.46L169.08 19.46Q169.08 20.21 168.66 20.83Q168.24 21.44 167.40 21.80Q166.56 22.17 165.36 22.17L165.36 22.17Q164.34 22.17 163.37 21.92Q162.41 21.67 161.82 21.24ZM176.01 22L173.65 22L173.65 13.60L176.01 13.60L176.01 17.09L179.26 13.60L181.87 13.60L178.45 17.32L182.05 22L179.29 22L176.89 18.95L176.01 19.90L176.01 22Z" fill="#FFFFFF" x="126.31"/></svg>